<svg width="162" height="30" viewBox="0 0 162 42" fill="none" xmlns="http://www.w3.org/2000/svg">
<g filter="url(#filter0_d_8_640)">
<path d="M4.8896 26V0.545454H15.0814C16.954 0.545454 18.5159 0.823034 19.7671 1.3782C21.0183 1.93336 21.9587 2.70395 22.5885 3.68999C23.2182 4.66773 23.5331 5.79463 23.5331 7.07067C23.5331 8.06499 23.3342 8.93916 22.9365 9.69318C22.5388 10.4389 21.9919 11.0521 21.2959 11.5327C20.6081 12.005 19.8209 12.3406 18.9343 12.5394V12.788C19.9038 12.8294 20.8111 13.1029 21.6563 13.6083C22.5098 14.1138 23.2016 14.8222 23.7319 15.7337C24.2622 16.6368 24.5274 17.714 24.5274 18.9652C24.5274 20.3158 24.1918 21.5214 23.5206 22.582C22.8578 23.6344 21.8759 24.4671 20.575 25.0803C19.2741 25.6934 17.6707 26 15.765 26H4.8896ZM10.2714 21.6001H14.6588C16.1585 21.6001 17.2523 21.3143 17.94 20.7425C18.6278 20.1625 18.9716 19.3919 18.9716 18.4308C18.9716 17.7264 18.8018 17.105 18.462 16.5664C18.1223 16.0278 17.6376 15.6052 17.0079 15.2987C16.3864 14.9921 15.6448 14.8388 14.7831 14.8388H10.2714V21.6001ZM10.2714 11.1971H14.2611C14.9985 11.1971 15.6531 11.0687 16.2248 10.8118C16.8049 10.5466 17.2606 10.1738 17.592 9.69318C17.9317 9.21259 18.1016 8.63672 18.1016 7.96555C18.1016 7.04581 17.7743 6.30421 17.1197 5.74077C16.4734 5.17732 15.5537 4.8956 14.3605 4.8956H10.2714V11.1971ZM27.0598 4.9826V0.545454H47.9653V4.9826H40.1724V26H34.8528V4.9826H27.0598ZM72.699 0.545454V26H68.0506L56.9763 9.97905H56.7899V26H51.4082V0.545454H56.1312L67.1184 16.554H67.3421V0.545454H72.699ZM85.246 26V0.545454H95.4378C97.3104 0.545454 98.8724 0.823034 100.124 1.3782C101.375 1.93336 102.315 2.70395 102.945 3.68999C103.575 4.66773 103.89 5.79463 103.89 7.07067C103.89 8.06499 103.691 8.93916 103.293 9.69318C102.895 10.4389 102.348 11.0521 101.652 11.5327C100.965 12.005 100.177 12.3406 99.2908 12.5394V12.788C100.26 12.8294 101.168 13.1029 102.013 13.6083C102.866 14.1138 103.558 14.8222 104.088 15.7337C104.619 16.6368 104.884 17.714 104.884 18.9652C104.884 20.3158 104.548 21.5214 103.877 22.582C103.214 23.6344 102.232 24.4671 100.931 25.0803C99.6305 25.6934 98.0272 26 96.1214 26H85.246ZM90.6278 21.6001H95.0152C96.515 21.6001 97.6087 21.3143 98.2965 20.7425C98.9842 20.1625 99.3281 19.3919 99.3281 18.4308C99.3281 17.7264 99.1582 17.105 98.8185 16.5664C98.4788 16.0278 97.994 15.6052 97.3643 15.2987C96.7429 14.9921 96.0013 14.8388 95.1395 14.8388H90.6278V21.6001ZM90.6278 11.1971H94.6175C95.355 11.1971 96.0095 11.0687 96.5813 10.8118C97.1613 10.5466 97.617 10.1738 97.9485 9.69318C98.2882 9.21259 98.4581 8.63672 98.4581 7.96555C98.4581 7.04581 98.1308 6.30421 97.4762 5.74077C96.8299 5.17732 95.9101 4.8956 94.7169 4.8956H90.6278V11.1971ZM113.581 0.545454V26H108.286V0.545454H113.581ZM126.448 26.3729C124.517 26.3729 122.848 25.9627 121.439 25.1424C120.039 24.3138 118.958 23.1621 118.195 21.6871C117.433 20.204 117.052 18.4846 117.052 16.5291C117.052 14.5571 117.433 12.8336 118.195 11.3587C118.958 9.87547 120.039 8.72372 121.439 7.90341C122.848 7.07481 124.517 6.66051 126.448 6.66051C128.379 6.66051 130.044 7.07481 131.445 7.90341C132.853 8.72372 133.939 9.87547 134.701 11.3587C135.463 12.8336 135.844 14.5571 135.844 16.5291C135.844 18.4846 135.463 20.204 134.701 21.6871C133.939 23.1621 132.853 24.3138 131.445 25.1424C130.044 25.9627 128.379 26.3729 126.448 26.3729ZM126.473 22.2713C127.351 22.2713 128.085 22.0227 128.673 21.5256C129.261 21.0201 129.705 20.3324 130.003 19.4624C130.309 18.5923 130.463 17.6022 130.463 16.4918C130.463 15.3815 130.309 14.3913 130.003 13.5213C129.705 12.6513 129.261 11.9635 128.673 11.4581C128.085 10.9527 127.351 10.6999 126.473 10.6999C125.586 10.6999 124.841 10.9527 124.236 11.4581C123.639 11.9635 123.188 12.6513 122.881 13.5213C122.583 14.3913 122.434 15.3815 122.434 16.4918C122.434 17.6022 122.583 18.5923 122.881 19.4624C123.188 20.3324 123.639 21.0201 124.236 21.5256C124.841 22.0227 125.586 22.2713 126.473 22.2713ZM147.888 33.5568C146.173 33.5568 144.702 33.3207 143.476 32.8484C142.258 32.3844 141.288 31.7505 140.567 30.9467C139.847 30.143 139.378 29.2398 139.163 28.2372L144.06 27.5785C144.209 27.9596 144.445 28.3159 144.768 28.6474C145.092 28.9788 145.518 29.244 146.049 29.4428C146.587 29.65 147.242 29.7536 148.012 29.7536C149.164 29.7536 150.113 29.4718 150.859 28.9084C151.613 28.3532 151.99 27.421 151.99 26.1119V22.6193H151.766C151.534 23.1496 151.186 23.6509 150.722 24.1232C150.258 24.5955 149.661 24.9808 148.932 25.2791C148.203 25.5774 147.333 25.7266 146.322 25.7266C144.889 25.7266 143.584 25.3951 142.407 24.7322C141.239 24.0611 140.306 23.0378 139.61 21.6623C138.923 20.2785 138.579 18.5302 138.579 16.4173C138.579 14.2546 138.931 12.4483 139.635 10.9982C140.34 9.54818 141.276 8.46271 142.444 7.74183C143.621 7.02095 144.909 6.66051 146.31 6.66051C147.379 6.66051 148.273 6.8428 148.994 7.20739C149.715 7.56368 150.295 8.01113 150.734 8.54972C151.182 9.08002 151.526 9.60204 151.766 10.1158H151.965V6.90909H157.222V26.1864C157.222 27.8105 156.825 29.1694 156.029 30.2631C155.234 31.3569 154.132 32.1772 152.723 32.7241C151.323 33.2792 149.711 33.5568 147.888 33.5568ZM148 21.7493C148.853 21.7493 149.574 21.538 150.163 21.1154C150.759 20.6845 151.215 20.0714 151.53 19.2759C151.853 18.4722 152.015 17.511 152.015 16.3924C152.015 15.2738 151.857 14.3043 151.542 13.484C151.227 12.6554 150.772 12.0133 150.175 11.5575C149.578 11.1018 148.853 10.8739 148 10.8739C147.13 10.8739 146.397 11.1101 145.8 11.5824C145.203 12.0464 144.752 12.6927 144.445 13.5213C144.139 14.3499 143.985 15.3069 143.985 16.3924C143.985 17.4944 144.139 18.4473 144.445 19.2511C144.76 20.0465 145.212 20.6638 145.8 21.103C146.397 21.5339 147.13 21.7493 148 21.7493Z" fill="#31394D"/>
</g>
<defs>
<filter id="filter0_d_8_640" x="0.889587" y="0.54541" width="160.333" height="41.0114" filterUnits="userSpaceOnUse" color-interpolation-filters="sRGB">
<feFlood flood-opacity="0" result="BackgroundImageFix"/>
<feColorMatrix in="SourceAlpha" type="matrix" values="0 0 0 0 0 0 0 0 0 0 0 0 0 0 0 0 0 0 127 0" result="hardAlpha"/>
<feOffset dy="4"/>
<feGaussianBlur stdDeviation="2"/>
<feComposite in2="hardAlpha" operator="out"/>
<feColorMatrix type="matrix" values="0 0 0 0 0 0 0 0 0 0 0 0 0 0 0 0 0 0 0.25 0"/>
<feBlend mode="normal" in2="BackgroundImageFix" result="effect1_dropShadow_8_640"/>
<feBlend mode="normal" in="SourceGraphic" in2="effect1_dropShadow_8_640" result="shape"/>
</filter>
</defs>
</svg>
