<svg width="192" height="36" viewBox="0 0 192 36" fill="none" xmlns="http://www.w3.org/2000/svg">
<g filter="url(#filter0_dd_8_655)">
<path d="M17.0425 1.35861C17.6446 -0.452871 20.2665 -0.452871 20.8686 1.35861L23.0202 7.83095C23.2895 8.64109 24.0618 9.18958 24.9334 9.18958H31.8958C33.8444 9.18958 34.6547 11.6269 33.0782 12.7465L27.4454 16.7466C26.7404 17.2472 26.4453 18.1347 26.7146 18.9448L28.8662 25.4172C29.4682 27.2286 27.3473 28.7352 25.7706 27.6156L20.138 23.6153C19.433 23.1147 18.4782 23.1147 17.7732 23.6153L12.1405 27.6156C10.564 28.7352 8.44285 27.2286 9.04501 25.4172L11.1965 18.9448C11.4658 18.1347 11.1708 17.2472 10.4658 16.7466L4.83306 12.7465C3.25656 11.6269 4.06677 9.18958 6.01542 9.18958H12.9778C13.8493 9.18958 14.6217 8.64109 14.891 7.83095L17.0425 1.35861Z" fill="#31394D"/>
<path d="M55.4663 1.35861C56.0685 -0.452871 58.6904 -0.452871 59.2924 1.35861L61.444 7.83095C61.7134 8.64109 62.4856 9.18958 63.3572 9.18958H70.3196C72.2682 9.18958 73.0785 11.6269 71.502 12.7465L65.8692 16.7466C65.1642 17.2472 64.8691 18.1347 65.1384 18.9448L67.29 25.4172C67.8921 27.2286 65.7711 28.7352 64.1944 27.6156L58.5618 23.6153C57.8568 23.1147 56.9021 23.1147 56.197 23.6153L50.5643 27.6156C48.9878 28.7352 46.8667 27.2286 47.4688 25.4172L49.6204 18.9448C49.8896 18.1347 49.5946 17.2472 48.8896 16.7466L43.2569 12.7465C41.6804 11.6269 42.4906 9.18958 44.4392 9.18958H51.4017C52.2731 9.18958 53.0455 8.64109 53.3148 7.83095L55.4663 1.35861Z" fill="#31394D"/>
<path d="M94.0213 1.35861C94.6234 -0.452871 97.2454 -0.452871 97.8474 1.35861L99.999 7.83095C100.268 8.64109 101.041 9.18958 101.912 9.18958H108.875C110.823 9.18958 111.633 11.6269 110.057 12.7465L104.424 16.7466C103.719 17.2472 103.424 18.1347 103.693 18.9448L105.845 25.4172C106.447 27.2286 104.326 28.7352 102.749 27.6156L97.1168 23.6153C96.4118 23.1147 95.4571 23.1147 94.752 23.6153L89.1193 27.6156C87.5428 28.7352 85.4217 27.2286 86.0238 25.4172L88.1753 18.9448C88.4446 18.1347 88.1496 17.2472 87.4446 16.7466L81.8119 12.7465C80.2354 11.6269 81.0456 9.18958 82.9942 9.18958H89.9566C90.8281 9.18958 91.6005 8.64109 91.8698 7.83095L94.0213 1.35861Z" fill="#31394D"/>
<path d="M132.576 1.35861C133.178 -0.452871 135.8 -0.452871 136.402 1.35861L138.554 7.83095C138.823 8.64109 139.596 9.18958 140.467 9.18958H147.43C149.378 9.18958 150.188 11.6269 148.612 12.7465L142.979 16.7466C142.274 17.2472 141.979 18.1347 142.248 18.9448L144.4 25.4172C145.002 27.2286 142.881 28.7352 141.304 27.6156L135.672 23.6153C134.967 23.1147 134.012 23.1147 133.307 23.6153L127.674 27.6156C126.098 28.7352 123.977 27.2286 124.579 25.4172L126.73 18.9448C127 18.1347 126.705 17.2472 126 16.7466L120.367 12.7465C118.79 11.6269 119.601 9.18958 121.549 9.18958H128.512C129.383 9.18958 130.155 8.64109 130.425 7.83095L132.576 1.35861Z" fill="#31394D"/>
<path d="M174.483 1.51631L174.483 1.51634L176.634 7.98868L176.634 7.9887C176.974 9.00893 177.941 9.68958 179.022 9.68958H185.985C187.473 9.68958 188.035 11.5167 186.877 12.3388L181.245 16.3389C180.364 16.9645 179.989 18.0801 180.329 19.1026L182.48 25.5749C182.917 26.888 181.366 28.072 180.149 27.2079C180.149 27.2079 180.149 27.2079 180.149 27.2079L174.516 23.2077L174.516 23.2077C173.638 22.584 172.451 22.584 171.573 23.2077L171.572 23.2077L165.94 27.2079C164.723 28.072 163.172 26.8881 163.608 25.5749L165.76 19.1025C166.1 18.0801 165.725 16.9646 164.844 16.3389C164.844 16.3389 164.844 16.3389 164.844 16.3389L159.211 12.3388L158.922 12.7465L159.211 12.3388C158.054 11.5167 158.616 9.68958 160.104 9.68958H167.067C168.147 9.68958 169.115 9.00894 169.454 7.98868L171.606 1.51634C172.056 0.161184 174.033 0.161267 174.483 1.51631Z" stroke="#31394D"/>
</g>
<defs>
<filter id="filter0_dd_8_655" x="0" y="0" width="192" height="36" filterUnits="userSpaceOnUse" color-interpolation-filters="sRGB">
<feFlood flood-opacity="0" result="BackgroundImageFix"/>
<feColorMatrix in="SourceAlpha" type="matrix" values="0 0 0 0 0 0 0 0 0 0 0 0 0 0 0 0 0 0 127 0" result="hardAlpha"/>
<feOffset dy="4"/>
<feGaussianBlur stdDeviation="2"/>
<feComposite in2="hardAlpha" operator="out"/>
<feColorMatrix type="matrix" values="0 0 0 0 0 0 0 0 0 0 0 0 0 0 0 0 0 0 0.25 0"/>
<feBlend mode="normal" in2="BackgroundImageFix" result="effect1_dropShadow_8_655"/>
<feColorMatrix in="SourceAlpha" type="matrix" values="0 0 0 0 0 0 0 0 0 0 0 0 0 0 0 0 0 0 127 0" result="hardAlpha"/>
<feOffset dy="4"/>
<feGaussianBlur stdDeviation="2"/>
<feComposite in2="hardAlpha" operator="out"/>
<feColorMatrix type="matrix" values="0 0 0 0 0 0 0 0 0 0 0 0 0 0 0 0 0 0 0.25 0"/>
<feBlend mode="normal" in2="effect1_dropShadow_8_655" result="effect2_dropShadow_8_655"/>
<feBlend mode="normal" in="SourceGraphic" in2="effect2_dropShadow_8_655" result="shape"/>
</filter>
</defs>
</svg>
