<svg width="33" height="33" viewBox="0 0 33 33" fill="none" xmlns="http://www.w3.org/2000/svg">
<path d="M11.6252 16.5L14.8752 19.75L21.3752 13.25M9.73165 4.63272C10.8976 4.53967 12.0046 4.08116 12.8948 3.32248C14.9723 1.55201 18.028 1.55201 20.1055 3.32248C20.9959 4.08116 22.1027 4.53967 23.2688 4.63272C25.9897 4.84985 28.1504 7.01052 28.3675 9.73147C28.4605 10.8975 28.9191 12.0044 29.6778 12.8947C31.4482 14.9722 31.4482 18.0278 29.6778 20.1054C28.9191 20.9956 28.4605 22.1025 28.3675 23.2686C28.1504 25.9895 25.9897 28.1501 23.2688 28.3674C22.1028 28.4603 20.9959 28.9189 20.1055 29.6776C18.028 31.4481 14.9723 31.4481 12.8948 29.6776C12.0046 28.9189 10.8976 28.4603 9.73165 28.3674C7.0107 28.1501 4.85003 25.9895 4.6329 23.2686C4.53985 22.1025 4.08134 20.9956 3.32266 20.1054C1.55219 18.0278 1.55219 14.9722 3.32266 12.8947C4.08134 12.0044 4.53985 10.8975 4.6329 9.73147C4.85003 7.01052 7.0107 4.84985 9.73165 4.63272Z" stroke="#7854F6" stroke-width="2" stroke-linecap="round" stroke-linejoin="round"/>
</svg>
